<svg width="29" height="10" viewBox="0 0 29 10" fill="none" xmlns="http://www.w3.org/2000/svg">
<path d="M0.492 0.599999H1.812V4.02H3.228V0.599999H4.548V9H3.228V5.22H1.812V9H0.492V0.599999ZM7.19906 9.12C6.55106 9.12 6.05506 8.936 5.71106 8.568C5.36706 8.2 5.19506 7.68 5.19506 7.008V2.592C5.19506 1.92 5.36706 1.4 5.71106 1.032C6.05506 0.664 6.55106 0.48 7.19906 0.48C7.84706 0.48 8.34306 0.664 8.68706 1.032C9.03106 1.4 9.20306 1.92 9.20306 2.592V7.008C9.20306 7.68 9.03106 8.2 8.68706 8.568C8.34306 8.936 7.84706 9.12 7.19906 9.12ZM7.19906 7.92C7.65506 7.92 7.88306 7.644 7.88306 7.092V2.508C7.88306 1.956 7.65506 1.68 7.19906 1.68C6.74306 1.68 6.51506 1.956 6.51506 2.508V7.092C6.51506 7.644 6.74306 7.92 7.19906 7.92ZM10.8409 1.8H9.46088V0.599999H13.5409V1.8H12.1609V9H10.8409V1.8ZM13.94 0.599999H17.432V1.8H15.26V4.14H16.964V5.34H15.26V9H13.94V0.599999ZM17.825 0.599999H19.145V7.8H21.317V9H17.825V0.599999ZM21.71 0.599999H23.03V9H21.71V0.599999ZM24.9426 4.704L23.4906 0.599999H24.8826L25.7706 3.312H25.7946L26.7066 0.599999H27.9546L26.5026 4.704L28.0266 9H26.6346L25.6746 6.072H25.6506L24.6666 9H23.4186L24.9426 4.704Z" fill="white"/>
</svg>
