<svg width="29" height="10" viewBox="0 0 29 10" fill="none" xmlns="http://www.w3.org/2000/svg">
<path d="M0.492 0.599999H2.148L3.432 5.628H3.456V0.599999H4.632V9H3.276L1.692 2.868H1.668V9H0.492V0.599999ZM7.28109 9.12C6.63309 9.12 6.13709 8.936 5.79309 8.568C5.44909 8.2 5.27709 7.68 5.27709 7.008V2.592C5.27709 1.92 5.44909 1.4 5.79309 1.032C6.13709 0.664 6.63309 0.48 7.28109 0.48C7.92909 0.48 8.42509 0.664 8.76909 1.032C9.11309 1.4 9.28509 1.92 9.28509 2.592V7.008C9.28509 7.68 9.11309 8.2 8.76909 8.568C8.42509 8.936 7.92909 9.12 7.28109 9.12ZM7.28109 7.92C7.73709 7.92 7.96509 7.644 7.96509 7.092V2.508C7.96509 1.956 7.73709 1.68 7.28109 1.68C6.82509 1.68 6.59709 1.956 6.59709 2.508V7.092C6.59709 7.644 6.82509 7.92 7.28109 7.92ZM10.9229 1.8H9.54291V0.599999H13.6229V1.8H12.2429V9H10.9229V1.8ZM14.022 0.599999H17.514V1.8H15.342V4.14H17.046V5.34H15.342V9H14.022V0.599999ZM17.907 0.599999H19.227V7.8H21.399V9H17.907V0.599999ZM21.792 0.599999H23.112V9H21.792V0.599999ZM25.0246 4.704L23.5726 0.599999H24.9646L25.8526 3.312H25.8766L26.7886 0.599999H28.0366L26.5846 4.704L28.1086 9H26.7166L25.7566 6.072H25.7326L24.7486 9H23.5006L25.0246 4.704Z" fill="white"/>
</svg>
